<?xml version="1.0" encoding="utf-8"?>
<!-- Generator: Adobe Illustrator 22.0.1, SVG Export Plug-In . SVG Version: 6.00 Build 0)  -->
<svg version="1.1" id="Capa_1" xmlns="http://www.w3.org/2000/svg" xmlns:xlink="http://www.w3.org/1999/xlink" x="0px" y="0px"
	 viewBox="0 0 612 612" style="enable-background:new 0 0 612 612;" xml:space="preserve">
<g>
	<g id="Zoom__x2B_">
		<g>
			<path d="M305.8,229.7h-76.6v76.6h76.6h76.6h76.6v-76.6h-76.6H305.8z M13.8,598.2c18.4,18.4,48.2,18.4,66.6,0L191,487.7
				c43.4,30.3,96.1,48.2,153.1,48.2c148,0,267.9-120,267.9-267.9S492.1,0,344.1,0S76.1,120,76.1,267.9c0,57,17.9,109.7,48.2,153.1
				L13.8,531.6C-4.6,550-4.6,579.8,13.8,598.2z M152.7,267.9c0-105.7,85.7-191.4,191.4-191.4c105.7,0,191.4,85.7,191.4,191.4
				s-85.7,191.4-191.4,191.4S152.7,373.6,152.7,267.9z"/>
		</g>
	</g>
</g>
</svg>
